<?xml version="1.0" standalone="no"?>
<!DOCTYPE svg PUBLIC "-//W3C//DTD SVG 20010904//EN"
 "http://www.w3.org/TR/2001/REC-SVG-20010904/DTD/svg10.dtd">
<svg version="1.0" xmlns="http://www.w3.org/2000/svg"
 width="1272.000000pt" height="1280.000000pt" viewBox="0 0 1272.000000 1280.000000"
 preserveAspectRatio="xMidYMid meet">
<g transform="translate(0.000000,1280.000000) scale(0.100000,-0.100000)"
fill="#2196f3" stroke="none">
<path d="M10524 12772 c-59 -43 -85 -77 -267 -347 -166 -247 -168 -251 -173
-315 -6 -61 -5 -68 21 -98 24 -29 32 -32 83 -32 103 0 215 71 373 238 189 199
223 301 151 451 -28 56 -103 131 -132 131 -9 0 -35 -13 -56 -28z"/>
<path d="M9245 12002 c-201 -123 -642 -932 -1104 -2024 -64 -149 -92 -198
-116 -198 -21 0 -45 75 -66 214 -24 157 -27 172 -47 211 -62 124 -156 31 -253
-252 -47 -137 -72 -183 -100 -183 -53 0 -89 207 -55 323 9 30 16 66 16 79 0
41 -42 70 -121 85 -40 7 -87 22 -106 34 -35 22 -58 53 -48 68 12 21 35 389 35
571 0 361 -37 544 -117 576 -25 11 -35 10 -63 -4 -110 -56 -214 -457 -250
-962 -17 -232 -18 -237 -52 -276 -44 -50 -64 -51 -140 -10 -74 41 -100 44
-128 16 -25 -25 -27 -112 -5 -245 8 -49 15 -113 15 -142 0 -44 -4 -56 -27 -78
-28 -25 -28 -26 -34 -195 -6 -202 -12 -216 -67 -154 -21 23 -66 97 -101 164
-66 127 -85 145 -131 128 -34 -13 -58 -35 -87 -82 l-25 -38 -39 38 c-65 63
-106 133 -134 229 -31 104 -58 160 -80 168 -22 9 -63 -9 -120 -53 -57 -43
-107 -70 -129 -70 -26 0 -44 41 -59 136 -14 85 -23 107 -118 285 -203 383
-236 436 -385 614 -114 136 -254 273 -334 324 -210 136 -320 15 -246 -270 61
-235 185 -444 388 -655 143 -148 158 -187 86 -217 -18 -8 -55 -17 -81 -21 -27
-4 -59 -17 -74 -30 -23 -20 -27 -31 -26 -72 1 -85 51 -177 241 -447 61 -87
109 -163 106 -170 -3 -7 -24 -24 -48 -39 -86 -55 -83 -109 8 -196 57 -54 72
-86 56 -126 -34 -89 -198 -30 -280 101 -75 118 -159 182 -215 163 -11 -4 -33
-30 -48 -58 -20 -37 -34 -52 -49 -52 -13 0 -72 52 -165 146 -206 207 -342 304
-428 304 -63 0 -81 -66 -49 -178 9 -31 55 -130 101 -221 76 -149 84 -170 80
-210 -5 -46 -34 -94 -60 -99 -10 -2 -68 60 -163 175 -82 98 -176 205 -210 239
-95 93 -196 141 -401 189 -57 14 -122 34 -145 46 -26 13 -137 114 -278 253
-305 301 -506 467 -696 576 -297 170 -425 52 -257 -237 138 -235 392 -510 748
-808 77 -65 239 -215 360 -334 121 -119 268 -254 328 -300 101 -78 127 -105
127 -131 0 -6 -17 -29 -39 -53 -52 -57 -63 -80 -52 -110 12 -31 42 -49 132
-81 41 -15 79 -30 85 -34 41 -28 58 -110 29 -148 -45 -59 2 -108 217 -223 166
-89 251 -141 264 -162 19 -31 -56 -32 -199 -3 -37 7 -242 73 -455 147 -939
326 -1370 450 -1476 423 -42 -10 -36 -56 13 -98 108 -92 436 -273 1013 -560
288 -144 407 -208 408 -220 0 -9 -28 -39 -63 -66 -35 -28 -72 -67 -82 -86
l-20 -36 28 -78 c33 -95 34 -126 3 -157 -50 -50 -164 -44 -461 26 -268 63
-439 91 -679 109 -642 49 -1168 -124 -1168 -384 0 -119 108 -209 307 -257 114
-27 255 -35 445 -27 602 25 590 26 900 -47 129 -30 178 -37 291 -40 101 -2
145 -7 168 -19 63 -33 89 -110 66 -192 -18 -61 -33 -76 -106 -104 -154 -57
-309 -209 -309 -302 0 -44 30 -70 86 -75 49 -5 102 9 302 82 41 14 99 31 130
36 83 13 311 14 324 1 31 -31 -86 -93 -342 -181 -308 -104 -420 -162 -420
-216 0 -42 39 -59 123 -52 71 6 121 20 245 72 62 26 66 26 217 19 84 -4 159
-10 166 -14 43 -27 -67 -77 -344 -156 -393 -112 -567 -173 -738 -259 -112 -56
-166 -92 -207 -140 -41 -46 -49 -79 -29 -120 59 -123 434 -121 792 5 139 49
263 118 473 263 374 258 669 397 680 322 4 -30 -60 -129 -154 -240 -47 -55
-108 -126 -135 -159 -43 -50 -50 -64 -47 -94 2 -25 11 -41 31 -56 27 -20 40
-21 223 -20 272 2 262 -15 -69 -111 -247 -72 -312 -101 -402 -185 -27 -26 -90
-73 -140 -104 -104 -67 -145 -103 -145 -127 0 -33 26 -41 117 -37 102 4 105 0
50 -84 -25 -38 -50 -58 -114 -94 -243 -137 -534 -455 -559 -612 -5 -33 -2 -44
16 -62 45 -45 143 -3 344 148 111 83 134 105 158 152 33 62 65 100 85 100 23
0 14 -39 -22 -104 -54 -97 -46 -146 25 -146 59 0 134 64 387 334 118 124 144
142 152 100 10 -57 42 -57 102 2 26 26 51 44 57 40 19 -11 -2 -64 -113 -296
-62 -129 -122 -262 -134 -296 -55 -163 -53 -355 3 -421 60 -70 148 -1 237 185
28 59 70 134 94 167 54 75 151 175 170 175 29 0 22 -32 -68 -286 -13 -39 -28
-99 -31 -135 -4 -35 -19 -145 -33 -244 -34 -232 -39 -500 -10 -553 109 -199
393 257 578 928 51 185 63 201 98 132 10 -20 27 -75 37 -122 23 -104 43 -130
107 -137 82 -10 148 37 161 114 4 21 29 128 55 238 27 110 56 238 64 284 9 46
20 88 25 93 38 38 105 -204 131 -466 17 -170 14 -457 -6 -588 -21 -138 -22
-200 -3 -301 13 -74 13 -82 -13 -210 -33 -166 -47 -278 -47 -387 0 -230 65
-365 176 -365 154 0 284 286 284 628 0 104 7 116 43 71 11 -15 36 -33 54 -41
79 -33 122 39 148 248 19 158 41 242 71 274 28 31 47 32 74 3 30 -33 43 -94
36 -170 -3 -38 -9 -99 -12 -137 -5 -49 -1 -92 11 -147 18 -81 17 -130 -5 -269
-23 -144 9 -386 65 -480 83 -143 241 -96 335 101 81 168 77 372 -9 543 -17 33
-31 67 -31 76 0 41 76 26 182 -37 75 -44 113 -46 123 -5 3 12 -4 69 -16 127
-30 146 -37 345 -14 393 28 61 71 58 144 -9 83 -75 99 -118 111 -309 5 -77 18
-183 29 -235 19 -90 26 -163 51 -560 6 -91 17 -193 25 -228 35 -150 162 -438
251 -573 83 -126 206 -219 288 -219 115 0 219 116 267 297 30 110 30 315 0
427 -27 102 -76 201 -149 303 -107 148 -206 368 -258 572 -28 110 -31 156 -8
165 9 3 48 6 87 6 131 0 148 28 96 156 -93 232 -151 453 -129 494 6 11 14 20
19 20 34 0 184 -150 326 -325 53 -66 119 -137 147 -157 110 -83 231 -76 256
16 16 57 -6 139 -71 265 -195 377 -267 532 -267 571 0 84 382 -385 559 -687
54 -92 116 -162 158 -179 34 -15 42 -13 140 27 41 16 50 9 118 -96 131 -201
373 -424 497 -457 41 -10 52 -10 82 5 101 48 49 261 -113 461 -66 82 -72 93
-69 130 3 47 5 47 118 25 80 -15 117 -7 131 28 15 40 -25 111 -126 226 -84 95
-103 127 -67 112 79 -33 301 -111 361 -126 90 -23 120 -24 149 -3 64 45 8 119
-313 409 -202 183 -496 477 -544 544 -22 32 -28 47 -21 56 14 17 57 7 255 -61
175 -59 209 -64 225 -35 14 27 15 25 -41 87 -82 91 -98 154 -38 154 49 0 237
-106 419 -235 110 -78 220 -147 295 -185 275 -136 697 -227 820 -176 74 31 87
107 34 206 -39 73 -203 236 -329 326 -191 137 -440 269 -670 354 -158 59 -242
102 -294 153 -52 49 -67 90 -42 115 19 19 113 21 361 8 161 -8 188 -1 193 50
3 26 -4 38 -43 72 -61 53 -197 119 -365 177 -147 51 -214 84 -231 116 -28 53
54 79 286 88 139 6 187 11 212 24 118 62 22 172 -242 277 -110 44 -236 107
-270 135 -29 24 -29 26 -12 39 39 30 208 32 432 5 88 -10 99 -12 358 -88 906
-264 1914 -400 2179 -294 39 15 78 59 78 86 0 26 -92 118 -162 163 -252 162
-878 403 -1719 664 -145 45 -352 109 -459 142 -195 60 -367 122 -384 139 -6 6
-6 13 1 20 8 8 52 7 159 -2 226 -19 334 9 334 84 0 46 -21 71 -82 97 -46 20
-78 24 -238 31 -180 7 -235 16 -293 46 -20 10 -27 20 -25 36 6 39 42 49 164
42 125 -6 275 7 334 31 49 20 80 57 80 95 0 57 -113 165 -198 189 -122 35
-284 21 -477 -41 -142 -45 -168 -48 -189 -17 -19 27 -20 87 -2 110 32 43 80
51 346 59 234 7 267 10 400 39 148 33 312 81 365 107 46 23 85 64 85 89 0 12
-13 33 -30 47 -29 25 -54 35 -197 76 -40 12 -85 32 -100 46 -25 21 -26 25 -13
39 26 26 127 45 319 61 347 29 609 69 796 123 301 87 457 198 442 315 -19 143
-298 203 -633 138 -197 -38 -229 -52 -427 -183 -206 -137 -303 -188 -359 -188
-52 0 -72 24 -87 101 -28 147 -67 209 -132 209 -16 0 -98 -31 -182 -69 -265
-119 -357 -149 -357 -117 0 8 61 72 136 143 75 70 145 145 155 165 40 77 17
140 -56 154 -52 9 -85 0 -209 -61 -129 -63 -166 -75 -166 -52 0 23 71 107 178
212 140 136 222 198 347 262 238 122 482 272 660 407 107 81 267 236 322 314
168 234 66 386 -207 312 -162 -44 -345 -156 -565 -345 -120 -103 -173 -136
-206 -128 -28 8 -74 67 -88 114 -7 22 -21 49 -32 60 -18 18 -28 19 -90 13 -51
-5 -69 -3 -69 6 0 6 41 55 91 108 66 71 103 120 135 182 52 102 111 170 242
281 53 46 160 144 237 219 117 115 168 155 317 254 193 128 251 182 374 346
179 239 234 404 161 478 -34 33 -112 41 -191 18 -152 -44 -398 -206 -557 -365
-47 -47 -139 -153 -204 -236 -140 -177 -292 -335 -324 -335 -23 0 -23 0 -21
85 1 78 -24 121 -75 131 -108 20 -293 -134 -479 -400 -47 -66 -100 -142 -118
-168 -56 -80 -108 -94 -138 -38 -16 30 -12 50 21 101 27 43 30 53 23 95 -7 51
-33 84 -64 84 -80 0 -218 -162 -492 -580 -119 -181 -178 -244 -271 -292 -59
-30 -81 -22 -85 29 -5 67 44 195 207 536 337 708 544 1222 628 1564 34 138 38
270 9 302 -23 26 -52 27 -91 3z"/>
<path d="M2644 11351 c-46 -28 -69 -83 -69 -166 0 -77 18 -122 78 -198 49 -61
364 -315 432 -348 110 -53 205 -34 205 41 0 38 -132 305 -206 416 -136 205
-333 320 -440 255z"/>
<path d="M135 10100 c-44 -14 -84 -56 -111 -117 -30 -67 -30 -99 0 -166 48
-110 159 -177 443 -271 269 -88 518 -146 640 -149 59 -2 76 2 100 19 15 12 28
30 28 40 0 21 -312 294 -474 414 -205 153 -372 229 -516 236 -44 2 -93 -1
-110 -6z"/>
<path d="M2347 3073 c-113 -62 -260 -165 -319 -226 -49 -50 -123 -183 -134
-243 -14 -78 32 -110 109 -76 138 61 274 208 408 440 94 164 82 184 -64 105z"/>
<path d="M4241 1943 c-143 -74 -386 -388 -406 -525 -10 -64 9 -136 50 -194 72
-101 171 -134 233 -76 33 31 45 67 92 266 38 160 81 301 132 430 21 54 37 105
34 112 -9 23 -78 16 -135 -13z"/>
<path d="M3153 884 c-7 -3 -36 -45 -65 -92 -91 -151 -175 -267 -302 -416 -70
-83 -86 -118 -86 -188 0 -54 23 -107 59 -136 26 -21 101 -52 127 -52 40 0 128
45 168 86 56 58 96 147 162 359 55 176 59 197 59 287 0 82 -3 101 -21 125 -20
27 -69 40 -101 27z"/>
</g>
</svg>
